<svg width="300" height="300" viewBox="0 0 300 300" fill="none" xmlns="http://www.w3.org/2000/svg">
<rect width="300" height="300" fill="#68C4D9"/>
<path d="M125.458 166.304C127.607 166.304 129.405 165.865 130.853 164.988C132.344 164.111 133.528 162.971 134.405 161.567C135.326 160.164 135.962 158.563 136.312 156.765C136.707 154.923 136.904 153.038 136.904 151.108V127.295H145.917V151.108C145.917 154.309 145.522 157.313 144.732 160.12C143.987 162.927 142.781 165.383 141.114 167.488C139.492 169.593 137.387 171.259 134.799 172.487C132.212 173.715 129.12 174.329 125.524 174.329C121.797 174.329 118.617 173.693 115.986 172.421C113.399 171.106 111.294 169.395 109.671 167.29C108.048 165.141 106.864 162.664 106.119 159.857C105.417 157.05 105.066 154.134 105.066 151.108V127.295H114.144V151.108C114.144 153.081 114.319 154.989 114.67 156.831C115.065 158.629 115.701 160.23 116.578 161.633C117.499 163.036 118.683 164.177 120.13 165.054C121.577 165.887 123.353 166.304 125.458 166.304ZM187.49 168.737C183.763 172.465 179.421 174.329 174.466 174.329C171.396 174.329 168.502 173.715 165.783 172.487C163.107 171.259 160.761 169.571 158.744 167.422C156.77 165.273 155.192 162.751 154.008 159.857C152.867 156.919 152.297 153.761 152.297 150.384C152.297 147.183 152.867 144.179 154.008 141.372C155.192 138.522 156.792 136.044 158.81 133.939C160.871 131.79 163.283 130.102 166.046 128.874C168.809 127.602 171.813 126.966 175.058 126.966C179.443 126.966 183.193 127.887 186.306 129.729C189.464 131.571 191.832 134.049 193.411 137.162L186.635 142.162C185.451 139.837 183.785 138.061 181.636 136.833C179.531 135.606 177.229 134.992 174.729 134.992C172.755 134.992 170.935 135.408 169.269 136.241C167.646 137.075 166.243 138.215 165.059 139.662C163.919 141.109 163.02 142.776 162.362 144.661C161.748 146.547 161.441 148.543 161.441 150.648C161.441 152.84 161.792 154.901 162.493 156.831C163.195 158.717 164.16 160.361 165.388 161.765C166.616 163.168 168.063 164.286 169.729 165.119C171.44 165.909 173.282 166.304 175.255 166.304C179.772 166.304 183.851 164.177 187.49 159.923V156.634H178.084V149.99H194.99V174H187.49V168.737ZM222.658 174.329C219.237 174.329 216.124 173.671 213.317 172.355C210.554 170.996 208.164 169.22 206.147 167.027C204.173 164.791 202.638 162.247 201.542 159.397C200.446 156.546 199.897 153.63 199.897 150.648C199.897 147.534 200.468 144.552 201.608 141.701C202.792 138.851 204.393 136.329 206.41 134.136C208.471 131.944 210.905 130.211 213.712 128.94C216.518 127.624 219.566 126.966 222.855 126.966C226.232 126.966 229.302 127.668 232.065 129.071C234.871 130.431 237.261 132.229 239.235 134.465C241.208 136.702 242.743 139.245 243.84 142.096C244.936 144.946 245.484 147.841 245.484 150.779C245.484 153.893 244.914 156.875 243.774 159.725C242.634 162.532 241.055 165.032 239.037 167.225C237.02 169.373 234.608 171.106 231.802 172.421C228.995 173.693 225.947 174.329 222.658 174.329ZM209.107 150.648C209.107 152.665 209.414 154.616 210.028 156.502C210.642 158.388 211.519 160.054 212.659 161.502C213.843 162.949 215.268 164.111 216.935 164.988C218.645 165.865 220.575 166.304 222.724 166.304C224.916 166.304 226.846 165.865 228.512 164.988C230.223 164.067 231.648 162.861 232.788 161.37C233.972 159.879 234.849 158.212 235.419 156.371C236.033 154.485 236.34 152.577 236.34 150.648C236.34 148.63 236.012 146.679 235.354 144.793C234.74 142.907 233.841 141.241 232.657 139.794C231.516 138.346 230.091 137.206 228.381 136.373C226.714 135.496 224.829 135.057 222.724 135.057C220.531 135.057 218.579 135.518 216.869 136.439C215.159 137.316 213.734 138.5 212.593 139.991C211.453 141.438 210.576 143.105 209.962 144.99C209.392 146.832 209.107 148.718 209.107 150.648Z" fill="white"/>
<circle r="6.05882" transform="matrix(1 0 0 -1 65.1765 178.647)" fill="white"/>
<path d="M64.1326 165.856C63.6649 165.629 63.2729 165.263 63.0064 164.804C58.6649 158.43 54.2907 152.081 49.9725 145.688C48.328 143.234 47.3322 140.376 47.0844 137.399C46.3554 129.644 50.3978 122.184 57.2535 119.106C63.9083 116.116 70.1939 117.027 75.8206 121.811C77.5172 123.242 78.9248 125.006 79.9626 127.002C81.0003 128.998 81.6478 131.187 81.8678 133.444C82.4271 137.977 81.2824 142.559 78.6713 146.24C74.4684 152.38 70.2624 158.531 66.0534 164.693C65.7797 165.198 65.3639 165.603 64.8617 165.856H64.1326ZM70.3248 135.63C70.3292 134.437 69.9934 133.269 69.3596 132.273C68.7258 131.278 67.8223 130.499 66.7627 130.035C65.7031 129.57 64.5348 129.441 63.4047 129.664C62.2746 129.886 61.2331 130.45 60.4114 131.285C59.5896 132.12 59.0242 133.188 58.7863 134.356C58.5484 135.523 58.6486 136.737 59.0744 137.845C59.5001 138.954 60.2323 139.907 61.1789 140.585C62.1255 141.262 63.2442 141.635 64.3943 141.655C65.1655 141.664 65.9309 141.516 66.6467 141.218C67.3624 140.92 68.0145 140.479 68.5654 139.919C69.1164 139.36 69.5554 138.693 69.8573 137.956C70.1592 137.22 70.318 136.43 70.3248 135.63Z" fill="white"/>
</svg>
